<svg width="514" height="514" viewBox="0 0 514 514" fill="none" xmlns="http://www.w3.org/2000/svg">
<rect x="17" y="17" width="480" height="480" rx="90" fill="url(#paint0_linear_847_316)"/>
<path d="M402.864 226.541C406.684 215.059 408.005 202.895 406.739 190.863C405.473 178.83 401.649 167.206 395.523 156.767C386.44 140.987 372.572 128.494 355.918 121.089C339.263 113.684 320.683 111.749 302.855 115.563C292.727 104.318 279.813 95.9306 265.409 91.2438C251.006 86.5571 235.62 85.7357 220.798 88.8621C205.976 91.9884 192.239 98.9525 180.967 109.055C169.695 119.157 161.284 132.042 156.58 146.416C144.703 148.847 133.483 153.78 123.669 160.886C113.855 167.991 105.674 177.106 99.6722 187.62C90.491 203.373 86.5671 221.632 88.4676 239.758C90.3681 257.883 97.9946 274.936 110.245 288.45C106.411 299.927 105.076 312.088 106.331 324.121C107.585 336.154 111.4 347.78 117.519 358.223C126.613 374.008 140.493 386.504 157.159 393.909C173.826 401.315 192.417 403.247 210.255 399.429C218.301 408.473 228.188 415.7 239.256 420.627C250.323 425.553 262.317 428.067 274.435 427.999C292.708 428.015 310.513 422.236 325.281 411.496C340.049 400.755 351.015 385.608 356.597 368.241C368.472 365.806 379.691 360.871 389.504 353.766C399.317 346.66 407.499 337.548 413.505 327.036C422.577 311.306 426.434 293.115 424.522 275.066C422.611 257.016 415.03 240.03 402.864 226.541ZM274.435 405.68C259.47 405.704 244.974 400.469 233.489 390.892L235.509 389.75L303.529 350.561C305.222 349.57 306.627 348.156 307.607 346.459C308.587 344.762 309.108 342.839 309.119 340.881V245.161L337.874 261.764C338.016 261.836 338.139 261.941 338.233 262.069C338.327 262.198 338.389 262.346 338.415 262.503V341.823C338.378 358.748 331.626 374.97 319.635 386.937C307.645 398.905 291.392 405.645 274.435 405.68ZM136.914 347.065C129.409 334.13 126.714 318.968 129.304 304.246L131.325 305.456L199.412 344.646C201.096 345.632 203.014 346.153 204.968 346.153C206.921 346.153 208.839 345.632 210.524 344.646L293.696 296.785V329.925C293.689 330.096 293.642 330.264 293.56 330.415C293.478 330.567 293.363 330.698 293.224 330.798L224.329 370.458C209.626 378.912 192.162 381.197 175.773 376.811C159.384 372.425 145.408 361.727 136.914 347.065ZM119.001 199.183C126.558 186.165 138.486 176.235 152.674 171.153V251.816C152.648 253.765 153.147 255.684 154.118 257.375C155.089 259.066 156.498 260.465 158.195 261.428L240.964 309.087L212.208 325.689C212.052 325.771 211.879 325.815 211.702 325.815C211.526 325.815 211.353 325.771 211.197 325.689L142.437 286.098C127.762 277.607 117.055 263.658 112.663 247.304C108.27 230.951 110.549 213.527 119.001 198.847V199.183ZM355.25 253.967L272.213 205.838L300.902 189.299C301.058 189.217 301.231 189.174 301.408 189.174C301.584 189.174 301.757 189.217 301.913 189.299L370.673 228.959C381.186 235.014 389.757 243.929 395.384 254.663C401.012 265.398 403.464 277.508 402.454 289.582C401.444 301.655 397.014 313.192 389.682 322.847C382.349 332.501 372.416 339.874 361.043 344.106V263.442C360.983 261.497 360.418 259.6 359.402 257.939C358.386 256.278 356.956 254.91 355.25 253.967ZM383.873 211.014L381.851 209.803L313.9 170.279C312.205 169.286 310.275 168.762 308.31 168.762C306.345 168.762 304.415 169.286 302.72 170.279L219.617 218.138V185C219.599 184.831 219.628 184.661 219.699 184.508C219.77 184.354 219.881 184.222 220.021 184.126L288.781 144.533C299.319 138.474 311.369 135.534 323.519 136.059C335.67 136.583 347.42 140.55 357.395 147.495C367.37 154.441 375.157 164.077 379.846 175.278C384.535 186.478 385.933 198.78 383.874 210.744L383.873 211.014ZM203.923 269.761L175.168 253.225C175.024 253.139 174.901 253.022 174.808 252.883C174.714 252.743 174.652 252.585 174.627 252.42V173.304C174.643 161.167 178.12 149.285 184.652 139.047C191.184 128.81 200.501 120.64 211.514 115.494C222.526 110.347 234.779 108.435 246.84 109.983C258.9 111.53 270.271 116.473 279.621 124.232L277.599 125.376L209.581 164.563C207.888 165.554 206.483 166.967 205.503 168.664C204.523 170.362 204.002 172.284 203.991 174.243L203.923 269.761ZM219.547 236.153L256.587 214.843L293.696 236.153V278.769L256.722 300.077L219.616 278.769L219.547 236.153Z" fill="#DDE1E6"/>
<defs>
<linearGradient id="paint0_linear_847_316" x1="257" y1="17" x2="450" y2="427.5" gradientUnits="userSpaceOnUse">
<stop stop-color="#042814"/>
<stop offset="0.322115" stop-color="#061C10"/>
<stop offset="0.701923" stop-color="#053622"/>
<stop offset="1" stop-color="#03140E"/>
</linearGradient>
</defs>
</svg>
